<svg
          width="20"
          height="24"
          viewBox="0 0 20 24"
          fill="none"
          xmlns="http://www.w3.org/2000/svg"
        >
          <path
            d="M16.7216 12.6827C16.7109 10.7162 17.593 9.23204 19.3783 8.13898C18.3794 6.69765 16.8703 5.90465 14.8778 5.74926C12.9915 5.59923 10.9299 6.85839 10.1753 6.85839C9.37832 6.85839 7.55048 5.80284 6.11583 5.80284C3.1509 5.85106 0 8.1872 0 12.9399C0 14.3437 0.255048 15.7939 0.765143 17.2906C1.44527 19.2571 3.90011 24.0794 6.46121 23.999C7.80021 23.9669 8.74601 23.0399 10.4888 23.0399C12.1785 23.0399 13.0553 23.999 14.5484 23.999C17.1307 23.9615 19.3518 19.5786 20 17.6068C16.5356 15.9618 16.7216 12.7845 16.7216 12.6827ZM13.7141 3.88464C15.1647 2.14861 15.0319 0.56796 14.9894 0C13.7088 0.0750136 12.2264 0.878731 11.3815 1.86998C10.4516 2.93089 9.90436 4.24363 10.0213 5.72247C11.4081 5.82963 12.6727 5.11164 13.7141 3.88464Z"
            fill="#1E293B"
          />
        </svg>