        <svg
          width="30"
          height="20"
          viewBox="0 0 30 20"
          fill="none"
          xmlns="http://www.w3.org/2000/svg"
        >
          <path
            d="M0 0.909091C0 0.409091 0.421875 0 0.9375 0H25.3125C25.8281 0 26.25 0.409091 26.25 0.909091C26.25 1.40909 25.8281 1.81818 25.3125 1.81818H0.9375C0.421875 1.81818 0 1.40909 0 0.909091ZM3.75 10C3.75 9.5 4.17188 9.09091 4.6875 9.09091H29.0625C29.5781 9.09091 30 9.5 30 10C30 10.5 29.5781 10.9091 29.0625 10.9091H4.6875C4.17188 10.9091 3.75 10.5 3.75 10ZM26.25 19.0909C26.25 19.5909 25.8281 20 25.3125 20H0.9375C0.421875 20 0 19.5909 0 19.0909C0 18.5909 0.421875 18.1818 0.9375 18.1818H25.3125C25.8281 18.1818 26.25 18.5909 26.25 19.0909Z"
            fill="#0F172A"
          />
        </svg>