<svg width="38" height="34" viewBox="0 0 38 34" fill="none" xmlns="http://www.w3.org/2000/svg">
<path d="M4.75 2.42857C4.75 1.08527 3.68867 0 2.375 0C1.06133 0 0 1.08527 0 2.42857V27.9286C0 31.283 2.65703 34 5.9375 34H35.625C36.9387 34 38 32.9147 38 31.5714C38 30.2281 36.9387 29.1429 35.625 29.1429H5.9375C5.28438 29.1429 4.75 28.5964 4.75 27.9286V2.42857ZM23.75 1.21429C23.75 0.546429 23.2156 0 22.5625 0C21.9094 0 21.375 0.546429 21.375 1.21429V4.85714C20.0613 4.85714 19 5.94241 19 7.28571V14.5714C19 15.9147 20.0613 17 21.375 17V20.6429C21.375 21.3107 21.9094 21.8571 22.5625 21.8571C23.2156 21.8571 23.75 21.3107 23.75 20.6429V17C25.0637 17 26.125 15.9147 26.125 14.5714V7.28571C26.125 5.94241 25.0637 4.85714 23.75 4.85714V1.21429ZM28.5 14.5714V19.4286C28.5 20.7719 29.5613 21.8571 30.875 21.8571V25.5C30.875 26.1679 31.4094 26.7143 32.0625 26.7143C32.7156 26.7143 33.25 26.1679 33.25 25.5V21.8571C34.5637 21.8571 35.625 20.7719 35.625 19.4286V14.5714C35.625 13.2281 34.5637 12.1429 33.25 12.1429V8.5C33.25 7.83214 32.7156 7.28571 32.0625 7.28571C31.4094 7.28571 30.875 7.83214 30.875 8.5V12.1429C29.5613 12.1429 28.5 13.2281 28.5 14.5714ZM11.875 7.28571C10.5613 7.28571 9.5 8.37098 9.5 9.71429V19.4286C9.5 20.7719 10.5613 21.8571 11.875 21.8571V25.5C11.875 26.1679 12.4094 26.7143 13.0625 26.7143C13.7156 26.7143 14.25 26.1679 14.25 25.5V21.8571C15.5637 21.8571 16.625 20.7719 16.625 19.4286V9.71429C16.625 8.37098 15.5637 7.28571 14.25 7.28571V3.64286C14.25 2.975 13.7156 2.42857 13.0625 2.42857C12.4094 2.42857 11.875 2.975 11.875 3.64286V7.28571Z" fill="#94A3B8"/>
</svg>